<svg width="279" height="141" viewBox="0 0 279 141" fill="none" xmlns="http://www.w3.org/2000/svg">
<path d="M226.571 49.4261C227.064 49.9089 228.312 50.7334 228.947 51.2342C232.385 53.9586 235.647 56.7392 238.794 59.7925C237.929 60.2279 237.064 60.6632 236.202 61.1014C234.566 61.9336 228.893 64.605 227.915 65.6892C226.69 67.0424 227.166 67.5492 228.718 68.2892C230.696 69.2347 232.867 69.9658 234.916 70.754C235.637 71.0357 236.358 71.3174 237.079 71.602C240.254 72.849 243.416 74.1403 246.558 75.4702C252.871 78.1435 259.112 80.9799 265.275 83.9768C268.798 85.6918 272.205 87.4637 275.685 89.2415C277.161 89.9961 278.518 89.5479 277.866 87.6099C277.454 86.3832 276.212 84.2607 275.583 82.9781C274.682 81.1488 273.809 79.2834 272.949 77.4351C271.248 73.7814 269.599 70.1024 268.005 66.4009C264.839 59.0524 261.915 51.6132 259.145 44.1126C258.366 42.0016 257.608 39.8869 256.841 37.7725C256.456 36.714 256.082 35.6549 255.668 34.6062C255.335 33.7585 255.025 32.8779 254.599 32.0688C254.583 31.7195 254.458 31.3917 254.12 31.1129C253.457 30.5636 252.518 31.136 252.3 31.85C252.096 32.5257 252.003 33.2525 251.855 33.9434C251.291 36.6101 250.726 39.2738 250.158 41.9406C249.718 44.0163 249.294 45.9485 248.973 48.0547C248.72 49.7033 248.343 49.461 246.754 49.3757C243.877 49.2255 241.085 49.2151 238.185 48.9959C234.9 48.7271 232.084 48.3006 228.848 47.7587C222.583 46.711 226.546 49.4007 226.565 49.4205L226.571 49.4261ZM246.969 51.4089C249.694 51.4394 249.38 52.3963 250.66 54.4328C251.334 55.5066 252.085 56.5717 252.794 57.6238C254.419 60.0438 256.09 62.43 257.792 64.7946C260.468 68.5074 263.219 72.1649 266.038 75.7702C261.829 71.4975 257.608 67.2368 253.365 63.0003C251.443 61.0786 249.664 59.1632 247.564 57.4232C246.435 56.4863 246.47 56.4149 245.062 55.6519C241.866 53.9274 238.484 52.3617 235.111 51.0056C234.545 50.7792 235.789 51.0089 235.866 51.0177C239.618 51.4057 243.198 51.5291 246.967 51.409L246.969 51.4089ZM243.328 57.4211C243.183 57.7095 241.287 58.5428 240.919 58.7201C238.907 56.8864 236.589 54.6852 234.454 53.0428C234.09 52.7621 236.692 53.9901 237.088 54.1675C237.808 54.493 243.285 56.9181 243.331 57.4209L243.328 57.4211ZM258.241 78.0675C251.983 75.1967 245.649 72.4863 239.248 69.9476C236.36 68.8063 233.535 67.7589 230.615 66.7093C229.683 66.3744 230.246 66.3092 231.028 65.9557C233.12 65.007 235.218 63.9707 237.284 62.9646C239.967 61.6552 242.846 60.3266 245.457 58.9149C246.696 58.2466 246.262 58.059 247.633 59.6196C248.803 60.9516 250.054 62.2134 251.285 63.4936C253.246 65.5304 255.204 67.5703 257.179 69.5921C261.129 73.6356 265.077 77.6821 269.027 81.7226C269.539 82.2485 271.915 84.6546 271.876 84.6502C271.832 84.646 264.523 81.0191 263.739 80.6435C261.914 79.771 260.08 78.9133 258.241 78.0675ZM252.289 43.3352C252.822 40.8273 253.354 38.3164 253.886 35.8085C254.069 36.4198 254.257 37.0309 254.454 37.6388C255.085 39.5688 255.741 41.4861 256.418 43.3998C257.765 47.1952 259.185 50.9646 260.657 54.7174C263.588 62.1885 266.737 69.5784 270.098 76.8698C270.316 77.3457 270.535 77.8185 270.756 78.2913C265.325 71.5161 260.153 64.5502 255.14 57.4616C254.542 56.6153 250.784 51.4067 250.655 51.0383C250.424 50.3938 251.202 48.2265 251.398 47.4141C251.724 46.0631 251.999 44.6907 252.289 43.3323L252.289 43.3352Z" fill="black"/>
<path d="M1.40385 97.743C3.37412 99.191 5.31354 100.555 7.22578 101.829C7.86598 102.258 8.74053 102.084 9.16952 101.444C9.5985 100.803 9.42486 99.9289 8.78466 99.5C6.90833 98.248 5.00713 96.9155 3.06679 95.4856C2.44473 95.0267 1.57042 95.1596 1.11152 95.7816C0.652609 96.4037 0.78543 97.2781 1.40748 97.737L1.40385 97.743Z" fill="#231F20"/>
<path d="M73.5115 110.165C71.505 111.167 69.3981 112.05 67.1912 112.775C66.4556 113.016 66.0643 113.81 66.3058 114.546C66.5473 115.281 67.3414 115.673 68.077 115.431C70.4138 114.654 72.6409 113.721 74.7617 112.666C75.4522 112.323 75.7345 111.48 75.3919 110.789C75.0494 110.099 74.2056 109.817 73.5152 110.159L73.5115 110.165Z" fill="#231F20"/>
<path d="M94.5053 92.5695C93.0847 94.319 91.5633 96.0729 89.9232 97.7794C89.3878 98.3387 89.4066 99.2258 89.9659 99.7613C90.5252 100.297 91.4122 100.278 91.9477 99.7186C93.6432 97.9475 95.2189 96.1446 96.6854 94.3329C97.1706 93.735 97.0762 92.8512 96.4783 92.366C95.8803 91.8808 94.9965 91.9752 94.5113 92.5731L94.5053 92.5695Z" fill="#231F20"/>
<path d="M102.518 81.1734C101.379 83.0118 100.104 84.9804 98.6857 87.0097C98.2448 87.6426 98.3969 88.5123 99.0262 88.9592C99.6591 89.4001 100.529 89.2481 100.976 88.6187C102.429 86.5453 103.733 84.5288 104.894 82.6545C105.299 81.9998 105.096 81.1323 104.442 80.7272C103.787 80.3222 102.92 80.5247 102.514 81.1794L102.518 81.1734Z" fill="#231F20"/>
<path d="M84.9075 102.53C83.1797 104.004 81.3537 105.409 79.4299 106.706C78.7918 107.138 78.6175 108.006 79.0551 108.648C79.4867 109.286 80.3548 109.46 80.9965 109.023C83.0167 107.661 84.9293 106.193 86.7283 104.657C87.3186 104.155 87.3875 103.272 86.886 102.682C86.3846 102.092 85.5016 102.023 84.9112 102.524L84.9075 102.53Z" fill="#231F20"/>
<path d="M33.505 111.98C31.4041 111.288 29.2497 110.481 27.0371 109.541C26.3267 109.241 25.5054 109.57 25.2057 110.28C24.9061 110.991 25.2348 111.812 25.9452 112.112C28.2273 113.086 30.4548 113.92 32.6384 114.638C33.3755 114.881 34.1647 114.483 34.4068 113.746C34.649 113.009 34.2517 112.22 33.5146 111.978L33.505 111.98Z" fill="#231F20"/>
<path d="M20.7551 106.592C18.7685 105.576 16.7403 104.453 14.6707 103.223C14.0087 102.83 13.1496 103.046 12.7529 103.714C12.3598 104.376 12.5756 105.235 13.2435 105.632C15.3611 106.891 17.4407 108.037 19.4752 109.082C20.1625 109.433 21.004 109.166 21.3588 108.472C21.71 107.785 21.4425 106.944 20.7492 106.589L20.7551 106.592Z" fill="#231F20"/>
<path d="M53.7713 115.148C52.997 115.17 52.3916 115.818 52.4133 116.592C52.435 117.366 53.0828 117.972 53.8571 117.95C56.3444 117.87 58.7448 117.623 61.0547 117.214C61.8163 117.078 62.3272 116.357 62.1914 115.595C62.0556 114.834 61.3342 114.323 60.5726 114.459C58.3937 114.84 56.1289 115.08 53.7773 115.152L53.7713 115.148Z" fill="#231F20"/>
<path d="M40.1485 113.806C39.3895 113.64 38.6504 114.117 38.4789 114.872C38.3135 115.631 38.7903 116.371 39.5456 116.542C41.9797 117.076 44.3509 117.458 46.6495 117.689C47.4185 117.771 48.1052 117.205 48.1867 116.436C48.2622 115.663 47.7023 114.98 46.9334 114.899C44.7439 114.676 42.4866 114.323 40.1485 113.806Z" fill="#231F20"/>
<path d="M107.974 71.943C107.455 72.7988 106.866 73.8248 106.194 74.9884C106.161 75.0422 106.128 75.0961 106.096 75.15C105.709 75.8155 105.94 76.676 106.606 77.0631C107.271 77.4502 108.132 77.2188 108.519 76.5532C108.551 76.4994 108.584 76.4455 108.617 76.3916C109.289 75.228 109.871 74.214 110.364 73.4001C110.764 72.7418 110.551 71.8766 109.893 71.4776C109.235 71.0785 108.37 71.2907 107.971 71.949L107.974 71.943Z" fill="#231F20"/>
<path d="M221.744 44.8745C219.829 43.354 217.942 41.9187 216.079 40.5746C215.455 40.122 214.575 40.263 214.122 40.8867C213.67 41.5105 213.81 42.3908 214.434 42.8434C216.263 44.1645 218.113 45.567 219.998 47.0682C220.603 47.55 221.482 47.4499 221.963 46.8454C222.445 46.2409 222.345 45.3621 221.741 44.8803L221.744 44.8745Z" fill="#231F20"/>
<path d="M150.15 29.7712C152.193 28.8452 154.331 28.041 156.564 27.3992C157.308 27.1853 157.728 26.4065 157.514 25.6624C157.301 24.9182 156.522 24.4976 155.777 24.7115C153.413 25.4006 151.153 26.2501 148.994 27.2253C148.292 27.5419 147.978 28.3745 148.295 29.0773C148.611 29.78 149.444 30.0936 150.146 29.777L150.15 29.7712Z" fill="#231F20"/>
<path d="M128.515 46.5714C130 44.876 131.585 43.1801 133.288 41.5359C133.844 40.997 133.858 40.1098 133.319 39.5539C132.78 38.998 131.893 38.9837 131.337 39.5227C129.577 41.2293 127.935 42.9721 126.402 44.7278C125.895 45.3072 125.956 46.1939 126.536 46.7011C127.115 47.2083 128.002 47.1469 128.509 46.5675L128.515 46.5714Z" fill="#231F20"/>
<path d="M120.082 57.6606C121.289 55.8659 122.637 53.9462 124.13 51.9713C124.594 51.3553 124.475 50.4806 123.862 50.0105C123.246 49.5462 122.372 49.6658 121.901 50.278C120.372 52.2958 118.993 54.2622 117.764 56.0919C117.334 56.7311 117.504 57.6055 118.143 58.0347C118.783 58.4639 119.657 58.2939 120.086 57.6547L120.082 57.6606Z" fill="#231F20"/>
<path d="M138.477 36.9756C140.259 35.5678 142.136 34.2313 144.107 33.0068C144.761 32.5993 144.967 31.7382 144.554 31.0806C144.147 30.4268 143.285 30.2203 142.628 30.6337C140.558 31.9189 138.592 33.3142 136.737 34.7826C136.129 35.2616 136.027 36.1415 136.506 36.7502C136.985 37.3589 137.865 37.4606 138.474 36.9815L138.477 36.9756Z" fill="#231F20"/>
<path d="M190.197 29.4498C192.27 30.2201 194.393 31.1066 196.569 32.1286C197.268 32.4546 198.101 32.1567 198.427 31.458C198.753 30.7593 198.455 29.9264 197.756 29.6004C195.512 28.5419 193.317 27.6247 191.162 26.8257C190.434 26.5562 189.631 26.9238 189.361 27.6513C189.092 28.3788 189.459 29.1823 190.187 29.4518L190.197 29.4498Z" fill="#231F20"/>
<path d="M202.737 35.3094C204.684 36.3988 206.669 37.5967 208.691 38.9031C209.338 39.3205 210.205 39.137 210.626 38.4843C211.044 37.8375 210.86 36.9709 210.207 36.5495C208.138 35.2124 206.103 33.9896 204.109 32.8694C203.435 32.4928 202.584 32.7287 202.204 33.4083C201.827 34.0821 202.063 34.9328 202.743 35.3133L202.737 35.3094Z" fill="#231F20"/>
<path d="M170.063 25.5281C170.837 25.5353 171.466 24.9105 171.474 24.1359C171.481 23.3614 170.856 22.7322 170.081 22.725C167.593 22.7122 165.185 22.8696 162.861 23.1916C162.095 23.2989 161.558 24.0008 161.665 24.7669C161.772 25.533 162.474 26.0705 163.24 25.9633C165.432 25.6634 167.704 25.5086 170.057 25.5242L170.063 25.5281Z" fill="#231F20"/>
<path d="M183.626 27.3775C184.378 27.5711 185.135 27.1223 185.334 26.3739C185.528 25.6216 185.079 24.8652 184.33 24.6657C181.918 24.0409 179.563 23.5711 177.274 23.2543C176.509 23.1442 175.802 23.6839 175.691 24.4494C175.587 25.2186 176.121 25.9222 176.887 26.0323C179.066 26.3361 181.309 26.7735 183.626 27.3775Z" fill="#231F20"/>
<path d="M114.286 66.681C114.836 65.8452 115.463 64.8419 116.179 63.7042C116.213 63.6516 116.248 63.599 116.283 63.5464C116.694 62.8957 116.495 62.0272 115.845 61.6156C115.194 61.2039 114.325 61.403 113.914 62.0537C113.879 62.1063 113.844 62.1589 113.81 62.2115C113.094 63.3492 112.475 64.3408 111.952 65.1358C111.528 65.7788 111.708 66.6512 112.351 67.0746C112.994 67.4979 113.866 67.3182 114.29 66.6752L114.286 66.681Z" fill="#231F20"/>
</svg>
