<svg width="25" height="24" viewBox="0 0 25 24" fill="none" xmlns="http://www.w3.org/2000/svg">
<path d="M3.71515 11H5.66022C6.76479 11 7.66022 11.8954 7.66022 13V14C7.66022 15.1046 8.55565 16 9.66022 16C10.7648 16 11.6602 16.8954 11.6602 18V20.9451M8.66022 3.93552V5.5C8.66022 6.88071 9.77951 8 11.1602 8H11.6602C12.7648 8 13.6602 8.89543 13.6602 10C13.6602 11.1046 14.5556 12 15.6602 12C16.7648 12 17.6602 11.1046 17.6602 10C17.6602 8.89543 18.5556 8 19.6602 8L20.7247 8M15.6602 20.4879V18C15.6602 16.8954 16.5556 16 17.6602 16H20.7247M21.6602 12C21.6602 16.9706 17.6308 21 12.6602 21C7.68965 21 3.66022 16.9706 3.66022 12C3.66022 7.02944 7.68965 3 12.6602 3C17.6308 3 21.6602 7.02944 21.6602 12Z" stroke="#111827" stroke-width="2" stroke-linecap="round" stroke-linejoin="round"/>
</svg>
