<svg width="25" height="24" viewBox="0 0 25 24" fill="none" xmlns="http://www.w3.org/2000/svg">
<path d="M14.3301 10H19.094C20.5808 10 21.5478 11.5646 20.8829 12.8944L17.3829 19.8944C17.0441 20.572 16.3516 21 15.594 21H11.5763C11.4128 21 11.2499 20.9799 11.0912 20.9403L7.33008 20M14.3301 10V5C14.3301 3.89543 13.4346 3 12.3301 3H12.2346C11.735 3 11.3301 3.40497 11.3301 3.90453C11.3301 4.61883 11.1186 5.31715 10.7224 5.91149L7.33008 11V20M14.3301 10H12.3301M7.33008 20H5.33008C4.22551 20 3.33008 19.1046 3.33008 18V12C3.33008 10.8954 4.22551 10 5.33008 10H7.83008" stroke="#111827" stroke-width="2" stroke-linecap="round" stroke-linejoin="round"/>
</svg>
