<svg width="21" height="20" viewBox="0 0 21 20" fill="none" xmlns="http://www.w3.org/2000/svg">
<path d="M14.5806 2.91675H6.24723C3.74723 2.91675 2.08057 4.16675 2.08057 7.08342V12.9167C2.08057 15.8334 3.74723 17.0834 6.24723 17.0834H14.5806C17.0806 17.0834 18.7472 15.8334 18.7472 12.9167V7.08342C18.7472 4.16675 17.0806 2.91675 14.5806 2.91675ZM14.9722 7.99175L12.3639 10.0751C11.8139 10.5167 11.1139 10.7334 10.4139 10.7334C9.7139 10.7334 9.00557 10.5167 8.4639 10.0751L5.85557 7.99175C5.5889 7.77508 5.54723 7.37508 5.75557 7.10841C5.97223 6.84175 6.3639 6.79175 6.63057 7.00841L9.2389 9.09175C9.87223 9.60008 10.9472 9.60008 11.5806 9.09175L14.1889 7.00841C14.4556 6.79175 14.8556 6.83341 15.0639 7.10841C15.2806 7.37508 15.2389 7.77508 14.9722 7.99175Z" fill="#A5AFAD"/>
</svg>
